<svg xmlns="http://www.w3.org/2000/svg" width="150.846" height="122.11" viewBox="0 0 150.846 122.11"><path d="M497.856,369.39,358.823,339.4l-1.807-.389a5,5,0,0,0-5.546,7.106l55.2,112.1a5.018,5.018,0,0,0,3.727,2.729,4.968,4.968,0,0,0,4.379-1.5l38.342-40.428a2.91,2.91,0,0,1,2.139-.934,3.011,3.011,0,0,1,2.68,1.558l7.853,14.526a4.886,4.886,0,0,0,5.471,2.507l.039-.009a4.893,4.893,0,0,0,3.877-4.647l1.573-33.532a3.057,3.057,0,0,1,.307-1.2,3.253,3.253,0,0,1,.788-.973l22.12-18.158a5.006,5.006,0,0,0-2.112-8.761Zm.849,7.217-22.12,18.158a4.934,4.934,0,0,0-.779.787L358.572,342.383a1.742,1.742,0,0,0-.322-.113,2,2,0,0,0-1.669,3.565l96.393,70.807a4.8,4.8,0,0,0-1.306,1l-38.341,40.428a3,3,0,0,1-4.864-.737l-55.2-112.1a3.008,3.008,0,0,1,3.328-4.26l1.85.4,138.989,29.981a3.007,3.007,0,0,1,1.276,5.258Z" transform="translate(-350.952 -338.895)" fill="#6c63ff"/></svg>