<?xml version="1.0" encoding="iso-8859-1"?>
<!-- Generator: Adobe Illustrator 19.0.0, SVG Export Plug-In . SVG Version: 6.00 Build 0)  -->
<svg version="1.1" id="Capa_1" xmlns="http://www.w3.org/2000/svg" xmlns:xlink="http://www.w3.org/1999/xlink" x="0px" y="0px"
	 viewBox="0 0 512.002 512.002" style="enable-background:new 0 0 512.002 512.002;" xml:space="preserve">
<g>
	<g>
		<path d="M478.046,438.159l-29.881-176.503c7.254-3.31,12.318-10.615,12.318-19.096c0-11.577-9.419-20.997-20.997-20.997h-45.794
			v-83.755c0-39.573-17.119-77.293-46.969-103.491c-3.112-2.732-7.852-2.424-10.582,0.689c-2.732,3.112-2.424,7.851,0.689,10.582
			c26.605,23.35,41.864,56.964,41.864,92.219c0,18.642,0,140.673,0,153.219h-11.998c0-1.716,0-151.941,0-153.219
			c0-61.039-49.658-110.697-110.697-110.697S145.304,76.769,145.304,137.808c0,32.154,0,121.728,0,153.219h-11.998
			c0-32.634,0-114.156,0-153.219c0-90.568,95.166-149.678,176.017-110.489c3.727,1.808,8.214,0.25,10.019-3.477
			c1.807-3.727,0.25-8.213-3.477-10.019c-90.768-43.997-197.557,22.345-197.557,123.986v83.755H72.514
			c-11.577,0-20.997,9.419-20.997,20.997c0,8.481,5.064,15.785,12.318,19.096L33.954,438.158
			c-6.53,38.569,23.185,73.843,62.392,73.843h258.852c4.142,0,7.499-3.356,7.499-7.499s-3.356-7.499-7.499-7.499H96.347
			c-29.847,0-52.598-26.848-47.605-56.343l29.983-177.103h39.583v28.281c-20.318,5.762-20.308,34.611,0,40.37v33.33
			c0,11.577,9.419,20.997,20.997,20.997s20.997-9.419,20.997-20.997v-33.39c8.687-2.574,15.047-10.615,15.047-20.125
			c0-9.509-6.36-17.551-15.047-20.125v-28.342H351.7v28.256c-20.416,5.685-20.46,34.723,0,40.42v33.305
			c0,11.577,9.419,20.997,20.997,20.997c11.577,0,20.997-9.419,20.997-20.997v-33.415c19.878-5.992,19.872-34.209,0-40.2v-28.366
			h39.585l29.982,177.104c4.981,29.427-17.69,56.343-47.605,56.343h-25.461c-4.142,0-7.499,3.356-7.499,7.499
			c0,4.142,3.356,7.499,7.499,7.499h25.461C454.771,512.002,484.592,476.816,478.046,438.159z M72.514,248.559
			c-3.308,0-5.999-2.691-5.999-5.999s2.691-5.999,5.999-5.999h45.794v11.998H72.514z M145.304,365.539
			c0,3.308-2.691,5.999-5.999,5.999s-5.999-2.691-5.999-5.999v-32.518h11.998V365.539z M160.349,312.024
			c0,3.308-2.691,5.999-5.999,5.999c-11.255,0-19.071,0-30.328,0c-3.308,0-5.999-2.691-5.999-5.999c0-3.308,2.691-5.999,5.999-5.999
			c11.253,0,19.071,0,30.328,0C157.659,306.025,160.349,308.716,160.349,312.024z M160.301,248.56v-11.998h26.577
			c4.142,0,7.499-3.356,7.499-7.499s-3.356-7.499-7.499-7.499h-26.577v-83.756c0-52.768,42.931-95.699,95.699-95.699
			c52.768,0,95.699,42.93,95.699,95.699v83.756H221.872c-4.142,0-7.499,3.356-7.499,7.499s3.356,7.499,7.499,7.499H351.7v11.998
			H160.301z M378.694,365.539c0,3.308-2.691,5.999-5.999,5.999c-3.308,0-5.999-2.691-5.999-5.999v-32.518h11.998V365.539z
			 M387.645,318.023c-13.879,0-16.335,0-30.328,0c-3.308,0-5.999-2.691-5.999-5.999c0-3.308,2.691-5.999,5.999-5.999
			c13.931,0,16.396,0,30.328,0c3.308,0,5.999,2.691,5.999,5.999C393.644,315.332,390.953,318.023,387.645,318.023z M439.486,248.559
			h-45.794v-11.998h45.794c3.308,0,5.999,2.691,5.999,5.999S442.795,248.559,439.486,248.559z"/>
	</g>
</g>
<g>
</g>
<g>
</g>
<g>
</g>
<g>
</g>
<g>
</g>
<g>
</g>
<g>
</g>
<g>
</g>
<g>
</g>
<g>
</g>
<g>
</g>
<g>
</g>
<g>
</g>
<g>
</g>
<g>
</g>
</svg>
