<svg version="1.1" id="Capa_1" xmlns="http://www.w3.org/2000/svg" xmlns:xlink="http://www.w3.org/1999/xlink" x="0px" y="0px"
	 viewBox="0 0 512 512" style="enable-background:new 0 0 512 512;" xml:space="preserve">
<g>
	<g>
		<path d="M511.586,174.482c-0.007-0.43-0.033-0.86-0.097-1.292c-0.633-8.929-1.847-17.551-3.68-25.823
			c-5.133-23.158-14.937-43.682-29.138-60.998c-24.276-29.602-52.952-39.456-54.16-39.86c-3.557-1.192-7.483-0.292-10.166,2.33
			c-84.004,82.097-110.83,157.919-130.419,213.282c-5.415,15.306-10.529,29.762-16.12,42.319
			c-19.615,44.064-56.102,59.697-81.39,59.696c-14.727-0.001-32.556-5.706-34.342-21.784c-0.299-2.687-1.672-5.138-3.808-6.795
			c-2.135-1.657-4.852-2.378-7.528-2.003c-19.236,2.713-53.248,14.272-80.872,27.483c-38.691,18.507-58.813,36.634-59.805,53.88
			c-0.526,9.149,2.41,17.181,8.727,23.871c18.254,19.334,66.166,27.22,165.372,27.22c59.921,0,99.042-9.419,126.847-30.54
			c26.408-20.061,40.712-48.634,58.821-84.81c8.399-16.779,17.75-35.457,29.565-55.692c10.986,15.288,19.157,44.678,23.399,84.859
			c4.152,39.332,3.128,75.52,3.117,75.881c-0.081,2.703,0.936,5.324,2.819,7.266c1.883,1.94,4.472,3.036,7.176,3.036h22.874
			c7.89,0,14.316-0.362,19.211-4.917c5.409-5.033,5.697-12.323,5.95-18.755c1.793-45.474,12.388-112.25,31.491-198.474
			C510.912,219.129,512.96,195.904,511.586,174.482z M378.847,273.641c-15.435,25.178-26.84,47.96-36.904,68.065
			c-34.763,69.444-52.212,104.302-167.784,104.302c-56.257,0-133.1-2.172-150.829-20.949c-2.49-2.638-3.508-5.41-3.302-8.992
			c0.303-5.272,10.852-18.994,48.467-36.985c24.229-11.589,49.913-20.255,66.289-24.037c7.037,17.764,26.481,29.092,51.631,29.093
			c0.002,0,0.002,0,0.004,0c31.278,0,76.145-18.742,99.658-71.563c5.91-13.277,11.152-28.094,16.703-43.781
			c19.596-55.385,43.889-124.045,120.85-201.012c8.348,3.933,24.845,13.308,39.575,31.269
			c15.614,19.039,24.901,42.085,27.849,68.903c-9.891,3.898-18.876,8.143-27.26,12.9
			C430.647,199.662,405.235,227.417,378.847,273.641z M485.903,239.538c-19.359,87.384-30.107,155.35-31.947,202.012
			c-0.078,1.984-0.173,3.371-0.27,4.339c-1.06,0.07-2.62,0.119-4.906,0.119h-12.74c0.042-13.829-0.371-39.88-3.335-68.071
			c-2.621-24.92-6.657-45.861-12.075-62.746c6.01-8.952,12.734-17.867,19.182-26.251c3.367-4.378,2.548-10.656-1.83-14.024
			c-4.379-3.366-10.656-2.548-14.024,1.83c-4.074,5.297-8.257,10.811-12.341,16.448c-3.455-6.56-7.269-12.046-11.432-16.46
			c23.263-39.251,44.899-62.271,73.476-78.484c5.756-3.266,11.849-6.275,18.404-9.096
			C491.909,204.852,489.865,221.654,485.903,239.538z"/>
	</g>
</g>
<g>
	<g>
		<path d="M457.986,254.149c-3.837-3.971-10.167-4.079-14.14-0.242l-0.162,0.154c-4.029,3.777-4.233,10.105-0.456,14.135
			c1.969,2.101,4.629,3.161,7.297,3.161c2.451,0,4.908-0.896,6.837-2.705l0.381-0.361
			C461.716,264.453,461.824,258.122,457.986,254.149z"/>
	</g>
</g>
<g>
	<g>
		<path d="M181.272,407.792c-0.066,0-0.133,0.001-0.199,0.002c-20.074,0.393-39.814,0.183-58.667-0.622
			c-5.526-0.232-10.182,4.048-10.417,9.565c-0.235,5.518,4.047,10.182,9.564,10.417c12.982,0.554,26.365,0.831,39.986,0.831
			c6.591,0,13.242-0.065,19.923-0.195c5.522-0.107,9.911-4.671,9.803-10.193C191.16,412.142,186.704,407.792,181.272,407.792z"/>
	</g>
</g>
<g>
	<g>
		<path d="M220.848,415.269c-0.282-5.516-4.979-9.792-10.498-9.475l-0.461,0.021c-5.517,0.252-9.785,4.929-9.533,10.445
			c0.245,5.362,4.669,9.544,9.981,9.544c0.154,0,0.309-0.004,0.464-0.011l0.572-0.026
			C216.888,425.486,221.129,420.785,220.848,415.269z"/>
	</g>
</g>
<g>
</g>
<g>
</g>
<g>
</g>
<g>
</g>
<g>
</g>
<g>
</g>
<g>
</g>
<g>
</g>
<g>
</g>
<g>
</g>
<g>
</g>
<g>
</g>
<g>
</g>
<g>
</g>
<g>
</g>
</svg>
